<svg width="240" height="50" viewBox="0 0 240 50" fill="none" xmlns="http://www.w3.org/2000/svg">
  <!-- Brain/Mind Icon with circuit pattern -->
  <g id="icon">
    <!-- Brain outline -->
    <path d="M18 8C14.5 8 12 10 11 12C10 10 7.5 8 4 8C2 8 0 9.5 0 12C0 14 1 15.5 2.5 17C1 18 0 20 0 22C0 24.5 1.5 26.5 3.5 27.5C2.5 28.5 2 30 2 31.5C2 34.5 4.5 37 7.5 37C8.5 37 9.5 36.7 10.5 36.2C11 38 12.5 39.5 14.5 40C13.5 41 13 42.5 13 44C13 47 15.5 49 18.5 49C21.5 49 24 47 24 44C24 42.5 23.5 41 22.5 40C24.5 39.5 26 38 26.5 36.2C27.5 36.7 28.5 37 29.5 37C32.5 37 35 34.5 35 31.5C35 30 34.5 28.5 33.5 27.5C35.5 26.5 37 24.5 37 22C37 20 36 18 34.5 17C36 15.5 37 14 37 12C37 9.5 35 8 33 8C29.5 8 27 10 26 12C25 10 22.5 8 18 8Z" fill="#EFFB53" opacity="0.3"/>

    <!-- Circuit lines -->
    <path d="M18.5 15 L18.5 22" stroke="#EFFB53" stroke-width="1.5"/>
    <path d="M18.5 22 L24 26" stroke="#EFFB53" stroke-width="1.5"/>
    <path d="M18.5 22 L13 26" stroke="#EFFB53" stroke-width="1.5"/>
    <circle cx="18.5" cy="22" r="2" fill="#EFFB53"/>
    <circle cx="24" cy="26" r="1.5" fill="#EFFB53"/>
    <circle cx="13" cy="26" r="1.5" fill="#EFFB53"/>
    <circle cx="18.5" cy="15" r="1.5" fill="#EFFB53"/>

    <!-- Additional circuit nodes -->
    <path d="M10 18 L18.5 22" stroke="#EFFB53" stroke-width="1" opacity="0.6"/>
    <path d="M27 18 L18.5 22" stroke="#EFFB53" stroke-width="1" opacity="0.6"/>
    <circle cx="10" cy="18" r="1" fill="#EFFB53" opacity="0.8"/>
    <circle cx="27" cy="18" r="1" fill="#EFFB53" opacity="0.8"/>
  </g>

  <!-- Text: Inquisitive Mind -->
  <g id="text" fill="white">
    <!-- Inquisitive -->
    <text x="48" y="24" font-family="Inter, Arial, sans-serif" font-size="16" font-weight="600" letter-spacing="0.5">Inquisitive</text>
    <!-- Mind -->
    <text x="48" y="42" font-family="Inter, Arial, sans-serif" font-size="16" font-weight="600" letter-spacing="0.5">Mind</text>
  </g>

  <!-- Accent dot -->
  <circle cx="150" cy="22" r="2" fill="#EFFB53"/>
</svg>
